####
#
# OBJ File Generated by Meshlab
#
####
# Object diamondSmall2.obj
#
# Vertices: 6
# Faces: 9
#
####
vn -0.000000 1.852674 -0.967826
v 0.000000 -0.195000 -0.000000 0.752941 0.752941 0.752941
vn -0.664762 0.553378 -2.212804
v 0.112500 -0.000000 0.112500 0.752941 0.752941 0.752941
vn -1.918377 -0.000000 1.918378
v 0.112500 0.000000 -0.112500 0.752941 0.752941 0.752941
vn 1.918377 -0.000000 1.918378
v -0.112500 0.000000 -0.112500 0.752941 0.752941 0.752941
vn 0.664762 0.553378 -2.212804
v -0.112500 -0.000000 0.112500 0.752941 0.752941 0.752941
vn 0.000000 -1.389505 -0.165001
v 0.000000 0.195000 0.000000 0.752941 0.752941 0.752941
# 6 vertices, 0 vertices normals

f 1//1 2//2 3//3
f 1//1 3//3 4//4
f 1//1 4//4 5//5
f 1//1 5//5 2//2
f 6//6 5//5 4//4
f 6//6 4//4 3//3
f 6//6 3//3 2//2
f 6//6 2//2 1//1
f 6//6 1//1 5//5
# 9 faces, 0 coords texture

# End of File
